<?xml version="1.0" encoding="UTF-8"?>
<svg width="185.21" height="37.042" version="1.1" viewBox="0 0 49.003 9.8006" xmlns="http://www.w3.org/2000/svg" xmlns:cc="http://creativecommons.org/ns#" xmlns:dc="http://purl.org/dc/elements/1.1/" xmlns:rdf="http://www.w3.org/1999/02/22-rdf-syntax-ns#">
 <metadata>
  <rdf:RDF>
   <cc:Work rdf:about="">
    <dc:format>image/svg+xml</dc:format>
    <dc:type rdf:resource="http://purl.org/dc/dcmitype/StillImage"/>
    <dc:title/>
   </cc:Work>
  </rdf:RDF>
 </metadata>
 <rect x="1.7484e-7" y="1.7484e-7" width="49.003" height="9.8006" fill="#ceb947" style="paint-order:stroke fill markers"/>
 <g fill="#fff" fill-opacity=".12851">
  <path d="m14.921 9.5809 4.7905-9.5809h-9.5809z" style="paint-order:stroke fill markers"/>
  <path d="m5.3397 0.21968 4.7905 9.5809h-9.5809z" style="paint-order:stroke fill markers"/>
  <path d="m34.082 9.5809 4.7905-9.5809h-9.5809z" style="paint-order:stroke fill markers"/>
  <path d="m24.502 0.21968 4.7905 9.5809h-9.5809z" style="paint-order:stroke fill markers"/>
  <path d="m43.663 0.21968 4.7905 9.5809h-9.5809z" style="paint-order:stroke fill markers"/>
 </g>
 <rect x="1.7484e-7" y="8.3928" width="49.003" height="1.4079" fill="#c4952d" style="paint-order:stroke fill markers"/>
 <g transform="matrix(.82738 0 0 .82738 4.2688 1.3323)">
  <g stroke-width="1.8438">
   <path d="m27.616 6.0417 0.28148-1.2417 0.70739 0.12588 1.025-0.11846 0.08269 1.1398-1.4942 0.11221z" fill="#ccc"/>
   <path d="m27.734 6.1825 0.16296-1.3825 0.59814 0.1458 1.0762-0.42324 0.35299 1.2261-1.5859 0.29173z" fill="#fff"/>
   <path d="m27.897 4.8 1.6743-0.27744 0.41245 1.0231-2.0966 0.45475z" fill="#0c3579"/>
  </g>
  <path d="m22.322 4.4939-0.10506 0.52527 0.67534 0.27014 0.55529-0.24012 0.83408-0.64721 0.26265 0.47224 0.06367 0.42979-0.15388 0.36612 0.02918 0.18571 0.19632 0.076939 1.7695-0.21571 0.43522-0.54779 0.12006-0.70538-0.1951-0.57028-0.50276-0.42022 1.2306-0.17259 0.75788 0.81044 0.64536-0.11256-0.9305-1.1331-1.4332-0.18009-0.1951-0.1876-1.028 0.34518-0.81791 0.3977-0.86294 0.36019 0.0075 0.31516-0.79539 0.75788z" fill="#fff" stroke-width="1.2086"/>
  <g transform="matrix(.056152 0 0 .056152 20.131 -1.269)" stroke-width="21.525">
   <path d="m39.021 102.63-8.4554-4.519-3.0641-6.4861-3.2721 1.6009 3.4326 5.3952-5.4897-0.44004-4.2305-6.6102-3.5852 2.3406 4.4882 6.9166 2.1354 1.9357-4.306-1.4795-4.5436-6.1472-1.2027 5.3454 3.7418 3.7418 5.776 2.1476-2.6727 0.53454-3.4393-0.80179-4.7259-3.6568-0.60608 4.0454 6.6588 2.959 4.4922 0.40371-3.1406 0.82571-5.8875-0.80182 0.74072 3.2836 5.7406-0.01 7.1417-0.38093 5.4534 0.68159 6.949-1.47z"/>
   <path d="m146.33 100.23 14.082-0.27202 4.7544 7.911 2.1734 6.8981-1.5119 5.0082-3.0238-0.56698 2.0789-5.1027-2.7403-3.8742 0.0945 5.1027-3.2128 6.8981-4.4412-0.85045 5.1972-7.9375-1.9844-3.5908 0.56695 3.0238-4.9137 8.9769-3.0238-1.3229 4.9137-8.8824-1.4174-1.9844-1.7954 4.6302-4.4412 6.3311-1.4174-2.3624 4.6302-7.9375-1.3229-1.9844-5.5751 2.9293 0.85045 3.2128-3.4963 0.47247-1.8899-4.1577 5.9531-4.5357z"/>
   <path d="m31.776 171.3-1.5119 12.851-16.442-8.5045-17.954-0.56698-7.5595-5.8586 0.56695-14.174 10.205-4.9137 2.0789 8.1265 7.3705 4.5357 11.15-0.189z"/>
   <path d="m116.25 164.49 13.418-7.5595 4.5357 4.9137-6.4256 16.064-24.946 7.7485-8.5044-4.7247 5.6696-3.7798h6.0476l6.8036-6.0476z"/>
  </g>
  <path d="m24.239 6.7102 2.4089-0.36612-0.29714 0.53591-0.73222 0.67916 1.2363-0.37142 0.34489 0.047754-0.79062 0.74817-1.889 0.70572-0.44571-0.31836 0.015919-1.3z" fill="#0c3579" stroke-width="1.2086"/>
  <path d="m26.988 5.5479-0.12204-0.23347-0.21755 0.068977-0.72161 0.2653-0.61548 0.11673 0.62082 0.047753z" stroke-width="1.2086"/>
  <g transform="matrix(.056152 0 0 .056152 20.131 -1.269)" stroke-width="32.836">
   <path d="m24.973 160.53 32.128-24.19 27.97-10.205 20.033-2.4568 17.009-2.2678 3.0238 7.1816-7.7485 10.394-18.143 8.1265-26.269 3.2128-16.631 11.339-12.095 11.15z" fill="#035ff6"/>
   <path d="m24.973 160.53 19.277 12.284-3.7798 5.6696-19.573-14.927z" fill="#1d488f"/>
   <path d="m125.89 149.19 5.3862 6.6146-17.954 11.717-4.6302-2.9293z" fill="#1d488f"/>
   <path d="m85.526 89.268 2.6059 4.4768-3.0736 6.8822-10.691 5.5459-4.0759 6.5481 8.3522 4.8109 9.7554-4.3431-8.0181-3.2741 4.8108-2.3386 8.4858-6.7486 1.8709-8.6194-6.1472-6.5481z" fill="#035ff6"/>
   <path d="m83.748 80.394-1.7009 8.3155 6.0476 1.1339 3.0238-4.9137z" fill="#0c3579"/>
  </g>
  <path d="m24.462 3.0649 0.6261-0.33958-0.25469 0.51999z" fill="#280b0b" stroke-width="1.2086"/>
  <g transform="matrix(.056152 0 0 .056152 20.131 -1.269)" fill="#ababab" stroke-width="21.525">
   <path d="m88.284 71.134-4.5357 9.2604 10.111 0.37798 3.9688-3.5908z"/>
   <path d="m83.748 80.394-5.3862 8.3155-3.1183-7.087 1.8899-4.4412z"/>
   <path d="m35.84 99.104 5.0082 1.3229-1.6064 13.702-3.4963-0.66145z"/>
   <path d="m143.66 101.43s20.847 0.13365 20.713-0.40089c-0.13362-0.53457-6.1472-8.8867-6.1472-8.8867l-15.568 3.5413 1.2696 3.0068z"/>
  </g>
  <path d="m23.793 0.64437a1.3053 1.2214 0 0 0-1.3048 1.2216 1.3053 1.2214 0 0 0 1.3048 1.2211 1.3053 1.2214 0 0 0 1.3053-1.2211 1.3053 1.2214 0 0 0-1.3053-1.2216zm-0.02842 0.33332a0.95509 0.93604 0 0 1 0.01344 0 0.95509 0.93604 0 0 1 0.95498 0.93586 0.95509 0.93604 0 0 1-0.95498 0.93586 0.95509 0.93604 0 0 1-0.95549-0.93586 0.95509 0.93604 0 0 1 0.94205-0.93586z" stroke-width="5.695" style="paint-order:stroke fill markers"/>
  <path d="m24.733 1.9135a0.95509 0.93605 0 0 1-0.95509 0.93605 0.95509 0.93605 0 0 1-0.95509-0.93605 0.95509 0.93605 0 0 1 0.95509-0.93605 0.95509 0.93605 0 0 1 0.95509 0.93605" fill="#afc" fill-opacity=".25301" stroke-width="1.2086" style="paint-order:stroke fill markers"/>
  <path d="m24.753 2.6105 0.26264 0.25138-0.18239 0.38343-0.24908-0.1283-0.11256-0.30391z" stroke-width="1.2086"/>
  <path d="m27.897 4.8 0.53318-0.084531 0.09993 0.09898-0.48383 0.6199z" fill="#0c3579" stroke-width="1.8438"/>
  <path d="m27.897 4.8-0.37597 0.93463 0.17127-0.017716z" fill="#0c3579" stroke-width="1.8438"/>
 </g>
</svg>
